# xmcd
#
# Track frame offsets: 
#        150
#        4193
#        26808
#        45658
#        63871
#        89291
#        110493
#        126896
#        136993
#        147331
#        162568
#        182083
#        211049
#
# Disc length: 3299 seconds
#
# Revision: 0
# Processed by: cddbd v1.5.1PL0 Copyright (c) Steve Scherf et al.
# Submitted via: ExactAudioCopy v0.95a5
#
DISCID=b40ce10d
DTITLE=Alvin Lee - In flight [disc 2] Remastered 1998
DYEAR=1974
DGENRE=Rock
TTITLE0=Intro
TTITLE1=Let's Get Back
TTITLE2=Ride My Train
TTITLE3=There's A Feeling
TTITLE4=Running Round
TTITLE5=Mystery Train
TTITLE6=Slow Down
TTITLE7=Keep A Knocking
TTITLE8=How Many Times
TTITLE9=I've Got Eyes For You Baby
TTITLE10=I'm Writing You A Letter
TTITLE11=Somebody Callin' Me
TTITLE12=Put It In A Box
EXTD=
EXTT0=
EXTT1=
EXTT2=
EXTT3=
EXTT4=
EXTT5=
EXTT6=
EXTT7=
EXTT8=
EXTT9=
EXTT10=
EXTT11=
EXTT12=
PLAYORDER=
